<svg width="33" height="24" viewBox="0 0 33 24" fill="none" xmlns="http://www.w3.org/2000/svg">
<rect width="32" height="23.4" transform="translate(0.5 0.300049)" fill="white" fill-opacity="0.01"/>
<path d="M4.5 0.800049H28.5C30.433 0.800049 32 2.36705 32 4.30005V19.7004C31.9998 21.6333 30.4329 23.2004 28.5 23.2004H4.5C2.56713 23.2004 1.00021 21.6333 1 19.7004V4.30005C1 2.36705 2.567 0.800049 4.5 0.800049Z" fill="white"/>
<path d="M4.5 0.800049H28.5C30.433 0.800049 32 2.36705 32 4.30005V19.7004C31.9998 21.6333 30.4329 23.2004 28.5 23.2004H4.5C2.56713 23.2004 1.00021 21.6333 1 19.7004V4.30005C1 2.36705 2.567 0.800049 4.5 0.800049Z" stroke="#E9EAEB"/>
<path fill-rule="evenodd" clip-rule="evenodd" d="M17.679 17.0995C16.4949 18.0976 14.959 18.7 13.2807 18.7C9.53582 18.7 6.5 15.7004 6.5 12C6.5 8.29974 9.53582 5.30005 13.2807 5.30005C14.959 5.30005 16.4949 5.90255 17.679 6.90059C18.863 5.90255 20.3989 5.30005 22.0773 5.30005C25.8221 5.30005 28.858 8.29974 28.858 12C28.858 15.7004 25.8221 18.7 22.0773 18.7C20.3989 18.7 18.863 18.0976 17.679 17.0995Z" fill="#ED0006"/>
<path fill-rule="evenodd" clip-rule="evenodd" d="M17.6792 17.0995C19.1371 15.8706 20.0616 14.042 20.0616 12C20.0616 9.95809 19.1371 8.12949 17.6792 6.90059C18.8632 5.90255 20.3992 5.30005 22.0775 5.30005C25.8224 5.30005 28.8582 8.29974 28.8582 12C28.8582 15.7004 25.8224 18.7 22.0775 18.7C20.3992 18.7 18.8632 18.0976 17.6792 17.0995Z" fill="#F9A000"/>
<path fill-rule="evenodd" clip-rule="evenodd" d="M17.6788 17.0995C19.1367 15.8706 20.0611 14.042 20.0611 12.0001C20.0611 9.95813 19.1367 8.12954 17.6788 6.90063C16.2208 8.12954 15.2964 9.95813 15.2964 12.0001C15.2964 14.042 16.2208 15.8706 17.6788 17.0995Z" fill="#FF5E00"/>
</svg>
