<svg width="33" height="24" viewBox="0 0 33 24" fill="none" xmlns="http://www.w3.org/2000/svg">
<path d="M4.5 0.590332H28.5C30.433 0.590332 32 2.15734 32 4.09033V19.9097C31.9999 21.8426 30.4329 23.4097 28.5 23.4097H4.5C2.56707 23.4097 1.0001 21.8426 1 19.9097V4.09033C1 2.15734 2.567 0.590332 4.5 0.590332Z" fill="white"/>
<path d="M4.5 0.590332H28.5C30.433 0.590332 32 2.15734 32 4.09033V19.9097C31.9999 21.8426 30.4329 23.4097 28.5 23.4097H4.5C2.56707 23.4097 1.0001 21.8426 1 19.9097V4.09033C1 2.15734 2.567 0.590332 4.5 0.590332Z" stroke="#E9EAEB"/>
<path fill-rule="evenodd" clip-rule="evenodd" d="M11.4503 15.8486H9.39051L7.84596 9.78271C7.77264 9.50368 7.61698 9.257 7.38801 9.14073C6.81659 8.84856 6.18691 8.61604 5.5 8.49876V8.26523H8.81808C9.27602 8.26523 9.61948 8.61604 9.67672 9.02346L10.4781 13.399L12.5369 8.26523H14.5394L11.4503 15.8486ZM15.6842 15.8486H13.739L15.3408 8.26523H17.286L15.6842 15.8486ZM19.8027 10.366C19.8599 9.95761 20.2034 9.72407 20.6041 9.72407C21.2338 9.66544 21.9197 9.78271 22.4921 10.0739L22.8356 8.44114C22.2631 8.20761 21.6335 8.09033 21.062 8.09033C19.174 8.09033 17.8002 9.14074 17.8002 10.5986C17.8002 11.7076 18.7733 12.2899 19.4602 12.6407C20.2034 12.9905 20.4896 13.2241 20.4324 13.5739C20.4324 14.0986 19.8599 14.3321 19.2885 14.3321C18.6016 14.3321 17.9147 14.1572 17.286 13.865L16.9426 15.4988C17.6295 15.7899 18.3726 15.9072 19.0595 15.9072C21.1765 15.9648 22.4921 14.9155 22.4921 13.3403C22.4921 11.3568 19.8027 11.2405 19.8027 10.366ZM29.3 15.8486L27.7554 8.26523H26.0964C25.7529 8.26523 25.4095 8.49876 25.295 8.84856L22.4349 15.8486H24.4374L24.8371 14.7405H27.2975L27.5265 15.8486H29.3ZM26.3826 10.3074L26.954 13.1655H25.3523L26.3826 10.3074Z" fill="#172B85"/>
</svg>
